<?xml version="1.0" encoding="UTF-8"?>
<!DOCTYPE svg PUBLIC "-//W3C//DTD SVG 1.1//EN" "http://www.w3.org/Graphics/SVG/1.1/DTD/svg11.dtd">
<!-- Creator: CorelDRAW (Nie do użytku komercyjnego) -->
<svg xmlns="http://www.w3.org/2000/svg" xml:space="preserve" width="80.3424mm" height="18.1035mm" version="1.1" style="shape-rendering:geometricPrecision; text-rendering:geometricPrecision; image-rendering:optimizeQuality; fill-rule:evenodd; clip-rule:evenodd"
viewBox="0 0 7842.76 1767.2"
 xmlns:xlink="http://www.w3.org/1999/xlink"
 xmlns:xodm="http://www.corel.com/coreldraw/odm/2003">
 <defs>
  <style type="text/css">
   <![CDATA[
    .fil1 {fill:#5C5C5B;fill-rule:nonzero}
    .fil0 {fill:#22A740;fill-rule:nonzero}
   ]]>
  </style>
 </defs>
 <g id="Warstwa_x0020_1">
  <metadata id="CorelCorpID_0Corel-Layer"/>
  <g id="_105553128949824">
   <path class="fil0" d="M775.96 841.38l-337.02 -337.02c-23.32,-23.31 -61.12,-23.31 -84.43,0l-337.03 337.02c-23.31,23.32 -23.31,61.13 0,84.44l36.12 36.11 296.64 -296.64 47.51 -47.51 47.51 47.51 295.61 295.61 35.09 -35.08c23.31,-23.31 23.31,-61.12 0,-84.44zm-674.85 168.06l99.78 99.78 0 -199.57 -99.78 99.78zm166.97 99.78l259.48 0 0 -266.6 -129.82 -129.82 -129.66 129.66 0 266.76zm326.67 -2.2l98.6 -98.61 -98.6 -98.6 0 197.21zm-326.67 69.39l86.43 86.43c23.31,23.32 61.11,23.32 84.43,0l86.43 -86.43 -257.29 0z"/>
   <path class="fil0" d="M1580.85 960.29c-4.58,-1.54 -9.14,-3.12 -13.63,-4.81 -15.68,-23.34 -31.37,-46.65 -47.31,-69.6 1.76,-2.81 1.41,-8.24 4.4,-9.78 2.57,-1.33 8.22,-1.61 12.17,-2.36 28.55,-5.44 59.95,-10.98 86.48,-16.25 18.23,25.18 37.11,52.15 54.13,77.46 -32.29,8.3 -64.16,16.9 -96.24,25.35zm-29.88 8.41c-27.43,8.63 -55.6,16.74 -82.94,25.45 -4.46,-1.89 -9.1,-3.52 -13.72,-5.17 -16.71,-25.59 -33.42,-51.16 -50.46,-76.27 0.43,-2.52 1.23,-4.77 2.05,-7.01 0.45,-1.25 0.92,-2.5 1.31,-3.8 1.14,-0.23 2.26,-0.49 3.41,-0.72 28.05,-5.95 54.9,-12.75 83.28,-18.46 4.43,1.94 9.02,3.65 13.48,5.54 15.69,23.67 31.6,47.02 47.54,70.3 -0.97,3.63 -1.97,7.21 -3.93,10.13zm-31.7 139.5c-32.14,15.22 -65.99,29.24 -98.19,44.41 -0.12,0.01 -0.23,0.03 -0.35,0.03 -22.46,-34.88 -45.06,-69.56 -67.76,-104.09 24.9,-9.59 54.61,-19.65 81.75,-29.37 3.8,-1.36 8.47,-4.06 11.64,-4.14 4.55,-0.12 9.63,4.3 13.99,4.78 19.48,29.69 39.1,59.2 58.92,88.38zm-202.98 -116.61c-12.11,-18.74 -24.19,-37.59 -36.15,-56.6 32.47,-8.36 64.19,-17.24 96.96,-25.39 4.05,0.96 9.7,3.99 14.31,5.85 0.55,0.84 1.1,1.69 1.66,2.53 16.3,25.03 32.81,49.77 49.11,74.82 -1.22,3.43 -1.55,7.48 -3.46,10.44 -30.83,11.1 -62.25,21.78 -93.72,32.43 -9.61,-14.64 -19.17,-29.33 -28.72,-44.08zm-115.58 -180.91c36.95,-5.97 72.7,-12.78 109.68,-18.71 21.13,31.35 41.6,63.72 62.53,95.38 -1.78,3.06 -1.74,7.37 -3.93,10.12 -32.37,8.34 -64.58,16.79 -97.53,24.72 -23.37,-37.5 -47.56,-73.75 -70.75,-111.51zm230.21 -35.69c0.51,0.11 0.88,0.4 1.04,1.02 13.79,21.11 28.55,42.27 42.82,63.62 2.58,3.86 5.13,7.7 7.67,11.57 2.01,3.07 6.58,8.56 7.07,11.12 0.37,2 -2.38,8.33 -4.15,9.4 -2.28,1.39 -6.94,1.45 -10.75,2.25 -14.95,3.15 -30.88,6.78 -46.33,10.24 -9.87,2.22 -19.54,4.34 -28.64,6.26 -4.85,-2 -9.65,-4.07 -14.42,-6.21 -20.07,-31.74 -42.14,-63.25 -61.23,-94.76 36.14,-4.49 70.86,-9.96 106.9,-14.51zm125.58 -13.72c20.35,28.21 40.08,57.37 59.82,86.5 -33.4,5.94 -66.85,11.85 -99.95,17.99 -4.55,-2.12 -9.29,-3.91 -13.95,-5.88 -6.31,-9.55 -12.65,-19.05 -19,-28.53 -12.98,-19.42 -26.01,-38.73 -39.03,-58.1 37.16,-4.13 75.06,-7.75 112.1,-11.98zm193.2 80.09l-337.02 -337.01c-23.32,-23.32 -61.12,-23.32 -84.43,0l-337.03 337.01c-23.31,23.32 -23.31,61.12 0,84.44l337.03 337.02c23.31,23.31 61.11,23.31 84.43,0l187.23 -187.24c-22.94,9.35 -45.82,18.74 -69.22,27.76 -15.64,-23.73 -34.33,-51.32 -50.81,-76.26 -2.19,-3.31 -6.84,-8.58 -7.42,-11.08 -0.89,-3.79 3.18,-7.41 2.99,-10.79 27.75,-8.69 55.54,-17.35 83.08,-26.19 4.45,1.75 9.13,3.15 13.63,4.81 16.01,23.91 32.32,47.35 48.5,71.01l8.91 -8.91c-15.15,-21.54 -29.86,-43.75 -45.08,-65.19 0.25,-4.12 2.32,-6.95 3.46,-10.45 32.23,-8.43 63.65,-17.43 95.66,-26.02 6.81,9 13.45,18.25 20.06,27.57l46.04 -46.04c23.31,-23.32 23.31,-61.12 0,-84.44z"/>
   <path class="fil1" d="M861.16 476.43c43.13,74.5 125.84,237.07 115.3,243.18 -10.55,6.1 -54.05,-49.35 -97.18,-123.86 -27.98,-48.32 -47.61,-93.54 -55.08,-121.02 -6.59,1.64 -15.74,2.48 -28.26,2.49 -86.08,0.1 -268.23,-9.57 -268.24,-21.75 -0.02,-12.18 69.76,-22.13 155.84,-22.23 61.16,-0.07 114.07,6.66 139.61,14.93 0.08,-0.05 0.16,-0.11 0.22,-0.16 0.57,-0.32 1.13,-0.61 1.7,-0.88 2.16,-5.74 5.56,-12.68 10.44,-21.14 42.96,-74.6 142.41,-227.51 152.97,-221.42 10.55,6.07 -15.71,71.47 -58.68,146.07 -28.62,49.71 -58.79,90.16 -78.88,109.82 3.12,4.24 6.52,9.51 10.25,15.96zm401.67 -121.92l-337.02 -337.02c-23.32,-23.31 -61.12,-23.31 -84.43,0l-337.03 337.02c-23.31,23.32 -23.31,61.12 0,84.43l276.54 276.54 24.19 -211.54 32.52 265.42 -2.83 0 6.62 6.61c23.31,23.31 61.11,23.31 84.43,0l337.02 -337.03c23.31,-23.31 23.31,-61.11 0,-84.43z"/>
   <path class="fil1" d="M1262.84 1328.25l-337.02 -337.02c-23.32,-23.31 -61.12,-23.31 -84.43,0l-337.03 337.02c-23.31,23.32 -23.31,61.12 0,84.43l337.03 337.03c23.31,23.32 61.11,23.32 84.43,0l54.44 -54.44c-9.54,1.59 -19.31,2.47 -29.29,2.47 -97.32,0 -176.24,-78.91 -176.24,-176.25 0,-97.33 176.24,-333.91 176.24,-333.91 0,0 176.23,236.57 176.23,333.91 0,10 -0.88,19.78 -2.47,29.3l138.12 -138.12c23.31,-23.31 23.31,-61.11 0,-84.43zm-388.2 18.57c0.19,0.1 -11.42,16.07 -25.26,44.89 -13.43,28.65 -29.61,71.19 -29.94,120.94 -1.24,50 22.29,93.67 48.31,112.98 25.63,20.07 45.98,23.55 45.54,24.18 -111.5,-132.83 -38.45,-302.92 -38.65,-302.99z"/>
   <path class="fil0" d="M2626.84 846.37l163.49 0 0 313.71c-41.98,32.03 -90.58,56.33 -145.81,72.9 -55.23,16.58 -110.46,25.41 -166.8,25.41 -80.63,0 -152.44,-17.68 -216.5,-51.91 -64.07,-34.24 -113.77,-81.74 -150.22,-142.5 -36.45,-60.75 -55.23,-129.23 -55.23,-205.45 0,-76.22 18.78,-145.81 55.23,-206.56 36.45,-60.76 86.16,-108.26 151.33,-142.5 65.18,-34.23 138.08,-50.81 218.72,-50.81 67.38,0 129.23,11.05 184.47,34.24 55.23,23.19 101.62,56.33 139.18,99.41l-114.89 106.04c-55.23,-58.54 -121.5,-87.26 -199.93,-87.26 -49.71,0 -92.78,9.94 -131.45,30.92 -38.66,20.99 -68.49,49.71 -89.48,87.27 -20.99,37.55 -32.03,80.63 -32.03,129.23 0,47.5 11.04,90.58 32.03,128.13 20.99,37.56 50.82,66.28 89.48,87.27 37.55,20.99 80.64,32.03 129.24,32.03 51.91,0 98.3,-11.04 139.17,-33.13l0 -226.45z"/>
   <path id="_1" class="fil0" d="M3108.46 729.28c20.99,-28.72 48.6,-50.82 83.95,-65.18 34.23,-14.36 75.11,-22.09 120.4,-22.09l0 159.07c-18.78,-1.1 -32.04,-2.21 -38.67,-2.21 -49.71,0 -88.36,13.25 -115.98,40.86 -27.62,27.62 -41.98,69.59 -41.98,124.82l0 280.57 -172.32 0 0 -594.27 164.59 0 0 78.43z"/>
   <path id="_2" class="fil0" d="M3992.13 950.2c0,2.21 -1.1,17.68 -3.31,46.4l-449.57 0c7.73,36.45 27.62,66.27 57.44,87.26 29.82,20.99 67.38,32.04 112.67,32.04 30.92,0 58.54,-4.42 82.85,-14.36 23.19,-8.84 45.28,-23.2 66.27,-43.09l91.68 99.42c-56.33,64.07 -138.08,96.09 -245.22,96.09 -67.38,0 -125.93,-13.26 -177.84,-39.76 -51.91,-25.41 -91.68,-61.86 -119.3,-108.26 -27.62,-46.39 -41.98,-99.41 -41.98,-157.95 0,-58.55 14.36,-110.46 41.98,-157.96 27.62,-46.39 65.17,-82.84 113.77,-109.35 47.5,-25.41 101.63,-38.67 161.27,-38.67 58.54,0 110.46,12.15 157.96,37.56 47.49,25.4 83.94,60.75 111.56,107.14 26.51,47.5 39.77,101.62 39.77,163.48zm-308.19 -177.84c-38.66,0 -71.8,11.04 -98.31,33.14 -26.51,22.09 -43.08,51.91 -48.6,90.57l292.72 0c-5.53,-37.55 -22.09,-67.38 -48.6,-90.57 -26.51,-22.1 -58.54,-33.14 -97.21,-33.14z"/>
   <path id="_3" class="fil0" d="M4689.13 950.2c0,2.21 -1.1,17.68 -3.31,46.4l-449.57 0c7.73,36.45 27.62,66.27 57.44,87.26 29.82,20.99 67.38,32.04 112.67,32.04 30.92,0 58.54,-4.42 82.85,-14.36 23.19,-8.84 45.28,-23.2 66.27,-43.09l91.68 99.42c-56.33,64.07 -138.08,96.09 -245.22,96.09 -67.38,0 -125.93,-13.26 -177.84,-39.76 -51.91,-25.41 -91.68,-61.86 -119.3,-108.26 -27.62,-46.39 -41.98,-99.41 -41.98,-157.95 0,-58.55 14.36,-110.46 41.98,-157.96 27.62,-46.39 65.17,-82.84 113.77,-109.35 47.5,-25.41 101.63,-38.67 161.27,-38.67 58.54,0 110.46,12.15 157.96,37.56 47.49,25.4 83.94,60.75 111.56,107.14 26.51,47.5 39.77,101.62 39.77,163.48zm-308.19 -177.84c-38.66,0 -71.8,11.04 -98.31,33.14 -26.51,22.09 -43.08,51.91 -48.6,90.57l292.72 0c-5.53,-37.55 -22.09,-67.38 -48.6,-90.57 -26.51,-22.1 -58.54,-33.14 -97.21,-33.14z"/>
   <path id="_4" class="fil0" d="M5165.22 642.01c74,0 133.66,22.09 178.94,66.28 45.29,44.18 67.38,109.35 67.38,196.62l0 340.21 -172.32 0 0 -313.71c0,-47.49 -9.94,-82.84 -30.92,-106.04 -20.99,-23.19 -50.81,-34.24 -89.48,-34.24 -43.08,0 -78.43,13.26 -103.83,39.77 -25.4,27.62 -38.66,67.38 -38.66,120.4l0 293.83 -172.32 0 0 -594.27 164.59 0 0 69.58c23.19,-25.4 50.81,-44.18 85.05,-58.54 34.24,-13.26 70.69,-19.88 111.57,-19.88z"/>
   <polygon id="_5" class="fil1" points="6521.66,650.86 6306.26,1245.13 6140.57,1245.13 6006.92,876.2 5868.84,1245.13 5703.15,1245.13 5488.86,650.86 5651.23,650.86 5791.52,1052.93 5937.33,650.86 6083.14,650.86 6224.53,1052.93 6369.22,650.86 "/>
   <path id="_6" class="fil1" d="M6822.1 642.01c91.68,0 162.38,22.09 212.09,65.18 49.71,44.18 74,110.45 74,198.83l0 339.11 -161.27 0 0 -74.01c-32.03,55.23 -92.78,82.85 -181.16,82.85 -45.28,0 -85.05,-7.73 -118.18,-23.19 -34.24,-15.46 -59.65,-36.45 -77.32,-64.07 -17.68,-27.62 -26.51,-58.54 -26.51,-92.78 0,-55.23 20.99,-98.31 62.96,-130.35 40.87,-32.03 104.94,-47.5 192.2,-47.5l136.98 0c0,-37.55 -11.05,-66.27 -34.24,-87.26 -23.2,-19.88 -57.44,-29.82 -102.73,-29.82 -32.03,0 -62.96,4.41 -92.78,14.36 -30.93,9.94 -57.44,24.3 -78.43,40.87l-61.86 -120.41c32.04,-23.19 71.8,-40.86 117.09,-53.02 45.28,-12.15 91.68,-18.78 139.17,-18.78zm-13.26 495.97c29.83,0 55.23,-6.63 78.43,-20.99 23.19,-13.26 38.66,-33.14 48.6,-59.65l0 -60.75 -118.19 0c-70.69,0 -106.04,23.19 -106.04,69.59 0,22.09 8.83,39.76 26.5,51.91 16.58,13.26 40.87,19.88 70.69,19.88z"/>
   <path id="_7" class="fil1" d="M7842.76 650.86l-268.42 630.72c-27.62,68.49 -60.76,117.09 -100.52,144.71 -40.87,27.62 -89.48,41.98 -145.81,41.98 -30.92,0 -61.86,-4.42 -91.68,-14.36 -29.82,-9.95 -55.23,-23.2 -74.01,-39.77l62.96 -122.61c13.26,12.14 28.72,20.99 46.4,27.62 16.57,6.62 34.24,9.94 50.81,9.94 23.19,0 43.08,-5.53 57.44,-16.57 14.36,-12.15 27.62,-30.93 39.77,-57.45l2.21 -5.52 -257.37 -598.69 177.84 0 166.8 403.18 167.9 -403.18 165.68 0z"/>
  </g>
 </g>
</svg>
