<?xml version="1.0" encoding="iso-8859-1"?>
<!-- Generator: Adobe Illustrator 19.0.0, SVG Export Plug-In . SVG Version: 6.00 Build 0) -->
<svg fill="#fb9a1f" version="1.1" id="Capa_1" xmlns="http://www.w3.org/2000/svg" xmlns:xlink="http://www.w3.org/1999/xlink" x="0px" y="0px" viewBox="0 0 512.002 512.002" style="enable-background:new 0 0 512.002 512.002;" xml:space="preserve">
	<g>
		<g>
			<path d="M477.985,246.98c-97.093-129.457-90.169-120.423-91.719-121.882c-2.956-2.78-6.686-4.095-10.263-4.095H135.999
			c-4.567,0-9.144,2.191-12,6L34.015,246.98c-4.252,5.644-3.974,13.552,0.673,18.879l209.97,240.966
			c0.008,0.01,0.017,0.019,0.025,0.029l0.008,0.01c0.006,0.007,0.013,0.013,0.019,0.02c5.865,6.703,16.466,6.964,22.633-0.058
			l209.97-240.966C481.931,260.564,482.265,252.662,477.985,246.98z M355.208,151.002l-21.253,63.939L286,151.002H355.208z
			 M316.001,241.004H195.999L256,161.003L316.001,241.004z M225.999,151.002l-47.954,63.939l-21.254-63.939H225.999z
			 M130.804,167.929l24.29,73.075H75.997L130.804,167.929z M78.964,271.004h86.102l53.105,159.758L78.964,271.004z M255.999,449.454
			l-59.318-178.45h118.637L255.999,449.454z M293.828,430.763l53.105-159.759h86.103L293.828,430.763z M356.905,241.004
			l24.29-73.075l54.807,73.075H356.905z" />
		</g>
	</g>
	<g>
		<g>
			<path d="M256,0c-8.284,0-15,6.716-15,15v60.001c0,8.284,6.716,15,15,15c8.284,0,15-6.716,15-15V15C271,6.716,264.284,0,256,0z" />
		</g>
	</g>
	<g>
		<g>
			<path d="M176.605,64.395L116.604,4.394c-5.857-5.858-15.355-5.858-21.213,0c-5.858,5.858-5.858,15.355,0,21.213l60.002,60.001
			c2.929,2.929,6.768,4.393,10.606,4.393c3.838,0,7.678-1.464,10.606-4.393C182.463,79.75,182.463,70.253,176.605,64.395z" />
		</g>
	</g>
	<g>
		<g>
			<path d="M416.608,4.394c-5.857-5.858-15.355-5.858-21.213,0l-60.001,60.001c-5.858,5.858-5.858,15.355,0,21.213
			c2.93,2.929,6.768,4.393,10.607,4.393s7.678-1.464,10.606-4.393l60.001-60.001C422.466,19.749,422.466,10.252,416.608,4.394z" />
		</g>
	</g>
	<g>
	</g>
	<g>
	</g>
	<g>
	</g>
	<g>
	</g>
	<g>
	</g>
	<g>
	</g>
	<g>
	</g>
	<g>
	</g>
	<g>
	</g>
	<g>
	</g>
	<g>
	</g>
	<g>
	</g>
	<g>
	</g>
	<g>
	</g>
	<g>
	</g>
</svg>
