<svg fill="#fb9a1f" height="496pt" viewBox="0 0 496 496" width="496pt" xmlns="http://www.w3.org/2000/svg">
	<path d="m152 320c4.40625 0 8 3.585938 8 8h16c0-10.414062-6.710938-19.214844-16-22.527344v-17.472656h-16v16h-16v24c0 13.230469 10.769531 24 24 24 4.40625 0 8 3.585938 8 8v8h-8c-4.40625 0-8-3.585938-8-8h-16c0 10.414062 6.710938 19.214844 16 22.527344v17.472656h16v-16h16v-24c0-13.230469-10.769531-24-24-24-4.40625 0-8-3.585938-8-8v-8zm0 0" />
	<path d="m192 336h16v16h-16zm0 0" />
	<path d="m96 336h16v16h-16zm0 0" />
	<path d="m152 256c-48.519531 0-88 39.480469-88 88s39.480469 88 88 88 88-39.480469 88-88-39.480469-88-88-88zm0 160c-39.695312 0-72-32.296875-72-72s32.304688-72 72-72 72 32.296875 72 72-32.304688 72-72 72zm0 0" />
	<path d="m200 40c0 4.417969-3.582031 8-8 8s-8-3.582031-8-8 3.582031-8 8-8 8 3.582031 8 8zm0 0" />
	<path d="m128 64h16v16h-16zm0 0" />
	<path d="m240 64h16v16h-16zm0 0" />
	<path d="m384 128v-40c0-22.054688-17.945312-40-40-40h-61.753906l-4-16h-39.046875c-3.71875-18.230469-19.878907-32-39.199219-32h-16c-19.320312 0-35.480469 13.769531-39.191406 32h-39.046875l-4 16h-61.761719c-22.054688 0-40 17.945312-40 40v368c0 22.054688 17.945312 40 40 40h304c22.054688 0 40-17.945312 40-40v-136h72c22.054688 0 40-17.945312 40-40v-152zm-40-64c13.230469 0 24 10.769531 24 24v40h-16v-32c0-8.824219-7.175781-16-16-16h-45.753906l-4-16zm-64 256h56v64h-64v64h-224v-352h41.753906l-4 16h212.492188l-4-16h41.753906v32h-96v152c0 22.054688 17.945312 40 40 40zm44.6875 80-36.6875 36.6875v-36.6875zm-164.6875-352v-8c0-13.230469 10.769531-24 24-24h16c13.230469 0 24 10.769531 24 24v8h41.753906l12 48h-171.507812l12-48zm208 408c0 13.230469-10.769531 24-24 24h-304c-13.230469 0-24-10.769531-24-24v-368c0-13.230469 10.769531-24 24-24h57.753906l-4 16h-45.753906c-8.824219 0-16 7.175781-16 16v352c0 8.824219 7.175781 16 16 16h235.3125l68.6875-68.6875v-75.3125h16zm112-176c0 13.230469-10.769531 24-24 24h-176c-13.230469 0-24-10.769531-24-24v-136h224zm0 0" />
	<path d="m464 160h-16v112h-16v-96h-16v96h-16v-64h-16v64h-16v-80h-16v80h-16v-32h-16v32h-16v-56h-16v56h-16v16h192zm0 0" />
	<path d="m88 256c13.230469 0 24-10.769531 24-24 0-5.785156-2.144531-11.03125-5.558594-15.175781l24.78125-41.304688c1.546875.3125 3.136719.480469 4.777344.480469 4.257812 0 8.199219-1.207031 11.671875-3.160156l30.0625 26.3125c-1.09375 2.742187-1.734375 5.71875-1.734375 8.847656 0 13.230469 10.769531 24 24 24s24-10.769531 24-24-10.769531-24-24-24c-4.257812 0-8.199219 1.207031-11.671875 3.160156l-30.0625-26.3125c1.09375-2.742187 1.734375-5.71875 1.734375-8.847656 0-13.230469-10.769531-24-24-24s-24 10.769531-24 24c0 5.785156 2.144531 11.03125 5.566406 15.175781l-24.78125 41.304688c-1.554687-.3125-3.144531-.480469-4.785156-.480469-13.230469 0-24 10.769531-24 24s10.769531 24 24 24zm112-56c4.40625 0 8 3.59375 8 8s-3.59375 8-8 8-8-3.59375-8-8 3.59375-8 8-8zm-64-56c4.40625 0 8 3.59375 8 8s-3.59375 8-8 8-8-3.59375-8-8 3.59375-8 8-8zm-48 80c4.40625 0 8 3.59375 8 8s-3.59375 8-8 8-8-3.59375-8-8 3.59375-8 8-8zm0 0" />
</svg>
