<?xml version="1.0" encoding="UTF-8"?>
<!DOCTYPE svg PUBLIC "-//W3C//DTD SVG 1.1//EN" "http://www.w3.org/Graphics/SVG/1.1/DTD/svg11.dtd">
<!-- Creator: CorelDRAW (Nie do użytku komercyjnego) -->
<svg xmlns="http://www.w3.org/2000/svg" xml:space="preserve" width="22.4372mm" height="9.2049mm" version="1.1" style="shape-rendering:geometricPrecision; text-rendering:geometricPrecision; image-rendering:optimizeQuality; fill-rule:evenodd; clip-rule:evenodd"
viewBox="0 0 1089.99 447.17"
 xmlns:xlink="http://www.w3.org/1999/xlink"
 xmlns:xodm="http://www.corel.com/coreldraw/odm/2003">
 <defs>
  <style type="text/css">
   <![CDATA[
    .fil0 {fill:#5C5C5B}
   ]]>
  </style>
 </defs>
 <g id="Warstwa_x0020_1">
  <metadata id="CorelCorpID_0Corel-Layer"/>
  <path class="fil0" d="M130.85 269.61c49.67,-153.62 282.29,-205.84 433.2,-235.8 172.84,-34.31 326.03,-35.36 494.9,-33.07 104.66,1.42 -452.11,20.2 -494.9,252.75 -29.11,158.17 35.67,200.61 -41.03,190.14 -33.1,-4.51 -372.95,-133.09 -375.66,-135.22 -23.15,-18.2 -20.91,-25.22 -16.52,-38.8z"/>
  <path class="fil0" d="M607.86 249.18c-19.69,135.92 76.51,204.75 206.58,197.47 79.92,-4.47 160.16,-67.63 203.27,-137 46.34,-74.55 67.29,-191.89 72.29,-269.09 -127.66,24.12 -458.35,44.35 -482.13,208.63z"/>
  <path class="fil0" d="M92.02 258.69c-61.22,-38.41 -151.3,-141.49 -37.41,-189.34 94.51,-39.7 280.2,-50.7 394.08,-53.32 -135.55,37.41 -304.17,95.7 -356.67,242.66z"/>
 </g>
</svg>
